<svg xmlns="http://www.w3.org/2000/svg" xmlns:xlink="http://www.w3.org/1999/xlink" width="528" height="88" viewBox="0 0 5280000 879984" shape-rendering="geometricPrecision" text-rendering="geometricPrecision" image-rendering="optimizeQuality" fill-rule="evenodd" clip-rule="evenodd"><defs><style>.fil13{fill:#e480ae}.fil3{fill:#f6cde6}.fil9{fill:#fbdce9}.fil4{fill:#feebf2}</style><linearGradient id="id0" gradientUnits="userSpaceOnUse" x1="939653" y1="660833" x2="805434" y2="782320"><stop offset="0" stop-color="#ee97be"/><stop offset="1" stop-color="#ef9bc0"/></linearGradient><linearGradient id="id1" gradientUnits="userSpaceOnUse" x1="804182" y1="66897" x2="804241" y2="412922"><stop offset="0" stop-color="#ee82b1"/><stop offset="1" stop-color="#f198bf"/></linearGradient><linearGradient id="id2" gradientUnits="userSpaceOnUse" x1="669254" y1="661411" x2="804879" y2="782249"><stop offset="0" stop-color="#ee97be"/><stop offset="1" stop-color="#f198bf"/></linearGradient><linearGradient id="id3" gradientUnits="userSpaceOnUse" x1="399339" y1="561574" x2="804749" y2="783489"><stop offset="0" stop-color="#f5dae6"/><stop offset="1" stop-color="#f3d7e5"/></linearGradient><linearGradient id="id4" gradientUnits="userSpaceOnUse" xlink:href="#id3" x1="1212310" y1="560275" x2="803438" y2="782202"/><linearGradient id="id5" gradientUnits="userSpaceOnUse" x1="804182" y1="391260" x2="804288" y2="548936"><stop offset="0" stop-color="#d2a0bd"/><stop offset="1" stop-color="#d6a8c3"/></linearGradient><linearGradient id="id6" gradientUnits="userSpaceOnUse" x1="1233280" y1="205002" x2="1050380" y2="263438"><stop offset="0" stop-color="#c583aa"/><stop offset="1" stop-color="#d2a2be"/></linearGradient><linearGradient id="id7" gradientUnits="userSpaceOnUse" xlink:href="#id6" x1="367826" y1="211645" x2="373584" y2="403567"/><linearGradient id="id8" gradientUnits="userSpaceOnUse" xlink:href="#id5" x1="1251460" y1="391496" x2="1251560" y2="548842"/></defs><g id="Layer_x0020_1"><path fill="none" d="M0 0h5280000v879984H0z"/><path d="M1824409 145818h-92787v138778h33402v-41197h61582c8941 0 16500-767 22688-2303 6213-1535 11197-4027 15012-7500 3791-3460 6520-7960 8185-13488 1677-5539 2504-12295 2504-20303v-9602c0-7996-933-14823-2799-20492s-4866-10264-9000-13795c-4122-3532-9390-6095-15791-7701-6402-1606-14067-2397-22996-2397zm17397 50385c0 5197-1169 8835-3496 10901-2338 2067-6437 3095-12295 3095h-60991v-31181h60188c6260 0 10594 1028 12992 3095 2398 2066 3602 5834 3602 11291v2799zm104787-50385v138778h142168v-27803h-108779v-29917h105377v-27732h-105377v-25535h108779v-27791h-142168zm372729 109983c0-8268-1099-14374-3295-18295-2209-3945-5233-6638-9095-8103 4394-2799 7323-6472 8787-10996 1465-4535 2197-10724 2197-18602v-9602c0-7996-933-14823-2799-20492s-4866-10264-8988-13795c-4134-3532-9402-6095-15803-7701-6402-1606-14067-2397-22996-2397h-102979v138778h33389v-41397h65586c7736 0 13441 1594 17102 4795 3662 3212 5492 8197 5492 15000v21602h33402v-28795zm-34594-59598c0 5197-1170 8835-3496 10901-2339 2067-6437 3095-12296 3095h-71798v-31181h70995c6260 0 10595 1028 12992 3095 2410 2066 3603 5834 3603 11291v2799zm112569-50385v138778h33402V182609l57389 101987h35988l57590-101987v101987h33401V145818h-49795l-59196 102176-57177-102176h-51602zm355155 0l-71598 138778h38799l16996-33390h84188l16795 33390h39000l-71586-138778h-52594zm27590 25995l26397 51591h-55381l27390-51591h1594zm266561-25995h-150176v28192h58381v110586h33401V174010h58394v-28192zm98373 0l-71574 138778h38775l17008-33390h84188l16795 33390h38988l-71586-138778h-52594zm27602 25995l26386 51591h-55382l27390-51591h1606zm317525-25995v138778h33401v-57791h85582v57791h33188V145818h-33188v53196h-85582v-53196h-33401zm288151 0l-71586 138778h38787l17007-33390h84177l16795 33390h39000l-71586-138778h-52594zm27602 25995l26385 51591h-55381l27389-51591h1607zm315339 83988c0-8268-1098-14374-3307-18295-2196-3945-5232-6638-9094-8103 4405-2799 7335-6472 8799-10996 1465-4535 2197-10724 2197-18602v-9602c0-7996-933-14823-2799-20492s-4866-10264-8988-13795c-4134-3532-9402-6095-15815-7701-6390-1606-14055-2397-22984-2397h-102980v138778h33390v-41397h65586c7736 0 13441 1594 17102 4795 3661 3212 5492 8197 5492 15000v21602h33401v-28795zm-34594-59598c0 5197-1169 8835-3508 10901-2326 2067-6425 3095-12295 3095h-71787v-31181h70996c6260 0 10594 1028 12992 3095 2409 2066 3602 5834 3602 11291v2799zm171566-50385l-71586 138778h38787l16996-33390h84188l16795 33390h38988l-71574-138778h-52594zm27590 25995l26397 51591h-55381l27389-51591h1595zm252754-25995h-92787v138778h33401v-41197h61582c8941 0 16500-767 22701-2303 6201-1535 11197-4027 15000-7500 3791-3460 6531-7960 8197-13488 1665-5539 2492-12295 2492-20303v-9602c0-7996-922-14823-2788-20492s-4878-10264-9011-13795c-4122-3532-9390-6095-15792-7701-6401-1606-14066-2397-22995-2397zm17397 50385c0 5197-1169 8835-3496 10901-2339 2067-6437 3095-12295 3095h-60992v-31181h60189c6260 0 10594 1028 13004 3095 2385 2066 3590 5834 3590 11291v2799zm142570-50385l-71575 138778h38788l16995-33390h84189l16795 33390h38988l-71575-138778h-52605zm27602 25995l26397 51591h-55381l27389-51591h1595zm161774-25995v138778h33401V180813l91381 103783h39779V145818h-33389v94983l-81389-94983h-49783zM1793606 512547h30401c14788 0 26728-804 35799-2398 9059-1594 16028-4264 20894-7996s8067-8705 9602-14905c1524-6189 2291-13890 2291-23091h-34393c0 3862-437 7004-1299 9390-874 2409-2575 4275-5103 5610-2539 1323-6094 2197-10700 2599-4595 389-10559 602-17894 602h-27189c-7204 0-13003-343-17397-1004-4406-661-7807-2102-10205-4299-2385-2197-3992-5303-4795-9295-803-4004-1193-9402-1193-16205v-15189c0-7334 390-13145 1193-17397 803-4264 2433-7465 4902-9591 2456-2149 5988-3508 10594-4110s10630-898 18106-898h25583c7866 0 14137 331 18803 1004 4665 662 8196 1701 10594 3095 2409 1393 3968 3130 4701 5197 732 2067 1098 4440 1098 7098h34394c0-9732-993-17669-2989-23799-2008-6130-5539-10925-10606-14386-5067-3472-12000-5834-20799-7098-8799-1276-19996-1913-33590-1913h-29598c-12933 0-23622 767-32055 2303-8433 1535-15130 4535-20102 9000-4996 4476-8492 10830-10559 19098-2044 8267-3071 19193-3071 32799v17586c0 11469 1004 20965 2976 28500 1996 7535 5421 13500 10252 17905 4843 4394 11398 7453 19701 9189s18862 2599 31653 2599zm225565-138979l-71586 138778h38787l17008-33390h84176l16795 33390h39000l-71586-138778h-52594zm27602 25995l26386 51602h-55382l27390-51602h1606zm161762-25995v138778h33402V408575l91381 103771h39779V373568h-33378v94995l-81389-94995h-49795zm304344 138979h30390c14799 0 26740-804 35810-2398 9059-1594 16016-4264 20894-7996 4854-3732 8055-8705 9590-14905 1536-6189 2303-13890 2303-23091h-34393c0 3862-437 7004-1299 9390-874 2409-2575 4275-5103 5610-2539 1323-6106 2197-10700 2599-4595 389-10559 602-17894 602h-27200c-7193 0-12992-343-17398-1004-4393-661-7795-2102-10193-4299-2397-2197-3992-5303-4795-9295-803-4004-1193-9402-1193-16205v-15189c0-7334 390-13145 1193-17397 803-4264 2433-7465 4902-9591 2456-2149 5988-3508 10594-4110 4595-602 10630-898 18094-898h25595c7866 0 14126 331 18803 1004 4665 662 8196 1701 10594 3095 2398 1393 3957 3130 4701 5197 732 2067 1086 4440 1086 7098h34406c0-9732-1004-17669-3000-23799-2008-6130-5540-10925-10607-14386-5055-3472-11988-5834-20799-7098-8787-1276-19995-1913-33578-1913h-29598c-12933 0-23622 767-32067 2303-8433 1535-15118 4535-20090 9000-4996 4476-8504 10830-10559 19098-2043 8267-3071 19193-3071 32799v17586c0 11469 992 20965 2965 28500 1996 7535 5433 13500 10263 17905 4831 4394 11398 7453 19701 9189s18862 2599 31653 2599zm174979-138979v138778h142168v-27791h-108767v-29929h105377v-27720h-105377v-25536h108767v-27802h-142168zm372741 109983c0-8268-1099-14362-3307-18295-2197-3933-5233-6638-9095-8091 4406-2811 7335-6472 8799-11008 1465-4523 2197-10724 2197-18602v-9590c0-7996-933-14835-2799-20492-1866-5669-4866-10264-8988-13795-4146-3532-9402-6107-15815-7701-6390-1606-14055-2409-22984-2409h-102979v138778h33389v-41397h65586c7724 0 13429 1606 17102 4807 3662 3200 5492 8196 5492 14999v21591h33402v-28795zm-34595-59586c0 5197-1169 8822-3507 10901-2327 2055-6426 3095-12296 3095h-71786v-31193h70995c6260 0 10594 1039 12992 3094 2398 2079 3602 5835 3602 11304v2799zm330116 88582h30389c14799 0 26740-804 35811-2398 9059-1594 16015-4264 20893-7996 4855-3732 8055-8705 9591-14905 1523-6189 2291-13890 2291-23091h-34382c0 3862-437 7004-1311 9390-862 2409-2562 4275-5090 5610-2539 1323-6106 2197-10701 2599-4594 389-10559 602-17893 602h-27201c-7193 0-12992-343-17397-1004-4394-661-7795-2102-10193-4299s-3992-5303-4795-9295c-803-4004-1193-9402-1193-16205v-15189c0-7334 390-13145 1193-17397 803-4264 2433-7465 4901-9591 2457-2149 5988-3508 10595-4110 4594-602 10629-898 18094-898h25594c7866 0 14126 331 18803 1004 4665 662 8197 1701 10595 3095 2397 1393 3956 3130 4688 5197 745 2067 1099 4440 1099 7098h34405c0-9732-1004-17669-3000-23799-2008-6130-5539-10925-10606-14386-5055-3472-11988-5834-20799-7098-8787-1276-19996-1913-33579-1913h-29598c-12933 0-23622 767-32066 2303-8433 1535-15118 4535-20091 9000-4996 4476-8504 10830-10559 19098-2043 8267-3071 19193-3071 32799v17586c0 11469 993 20965 2965 28500 1996 7535 5433 13500 10264 17905 4830 4394 11397 7453 19700 9189s18862 2599 31654 2599zm174978-138979v138778h142157v-27791h-108767v-29929h105377v-27720h-105377v-25536h108767v-27802h-142157zm219152 0v138778h33401V408575l91381 103771h39779V373568h-33389v94995l-81389-94995h-49783zm386536 0h-150176v28204h58381v110574h33402V401772h58393v-28204zm70783 0v138778h142168v-27791h-108779v-29929h105377v-27720h-105377v-25536h108779v-27802h-142168zm372740 109983c0-8268-1098-14362-3307-18295-2208-3933-5232-6638-9094-8091 4405-2811 7335-6472 8799-11008 1465-4523 2197-10724 2197-18602v-9590c0-7996-933-14835-2799-20492-1866-5669-4866-10264-9000-13795-4134-3532-9390-6107-15803-7701-6390-1606-14055-2409-22984-2409h-102980v138778h33390v-41397h65586c7724 0 13429 1606 17090 4807 3673 3200 5504 8196 5504 14999v21591h33401v-28795zm-34594-59586c0 5197-1169 8822-3508 10901-2338 2055-6425 3095-12295 3095h-71787v-31193h70984c6272 0 10606 1039 13004 3094 2398 2079 3602 5835 3602 11304v2799z" fill="#ff60b0" fill-rule="nonzero"/><path d="M1845090 760718h-16193v-65527h-73334v65527h-16181V621491h16181v59231h73334v-59231h16193v139227zm184380-69803c0 22275-5657 39803-16901 52570-11292 12744-26953 19146-47008 19146-20504 0-36342-6272-47492-18815-11125-12555-16700-30236-16700-53078 0-22701 5575-40252 16771-52736 11173-12472 27036-18720 47610-18720 19996 0 35598 6378 46854 19039 11244 12720 16866 30236 16866 52594zm-110952 0c0 18862 4004 33165 12036 42886 8031 9744 19700 14633 35007 14633 15402 0 27083-4854 34937-14574 7866-9709 11811-24024 11811-42945 0-18756-3910-32952-11740-42614-7866-9685-19465-14515-34819-14515-15425 0-27165 4866-35196 14586-8032 9756-12036 23929-12036 42543zm245892 32752c0 12248-4453 21803-13323 28653-8905 6874-20964 10311-36212 10311-16488 0-29185-2150-38067-6402v-15602c5681 2410 11929 4323 18661 5717 6721 1405 13394 2090 19985 2090 10795 0 18921-2055 24389-6141 5457-4111 8185-9792 8185-17103 0-4818-968-8775-2894-11870-1948-3047-5196-5917-9720-8515-4547-2599-11433-5563-20705-8835-12968-4653-22228-10145-27767-16488-5539-6342-8339-14622-8339-24874 0-10724 4028-19228 12083-25606 8067-6342 18720-9519 32019-9519 13819 0 26551 2527 38161 7629l-5031 14079c-11480-4807-22665-7216-33508-7216-8598 0-15283 1819-20102 5492-4830 3708-7252 8811-7252 15342 0 4843 886 8776 2670 11870 1783 3083 4783 5917 9000 8480 4228 2563 10700 5398 19381 8528 14599 5197 24638 10771 30142 16736 5480 5976 8244 13712 8244 23244zm142097-61606c0 14079-4795 24933-14421 32504-9626 7606-23374 11385-41291 11385h-16382v54768h-16181V621491h36082c34807 0 52193 13523 52193 40570zm-72094 30000h14563c14374 0 24744-2339 31145-6957 6402-4653 9614-12059 9614-22299 0-9201-3011-16051-9035-20575-6047-4488-15437-6755-28181-6755h-18106v56586zm126566 68657V621491h16181v139227h-16181zm122562 0h-16181V635853h-44090v-14362h104385v14362h-44114v124865zm177884 0l-17315-44268h-55818l-17126 44268h-16382l55027-139806h13618l54768 139806h-16772zm-22358-58878l-16181-43121c-2114-5469-4264-12166-6472-20103-1406 6118-3414 12815-6012 20103l-16382 43121h45047zm83633-80349h39319c18472 0 31842 2763 40086 8291 8256 5527 12378 14232 12378 26173 0 8244-2303 15082-6886 20444-4618 5363-11303 8835-20150 10430v944c21130 3603 31725 14717 31725 33307 0 12461-4229 22181-12650 29173-8374 6980-20149 10465-35267 10465h-48555V621491zm16181 59609h26657c11445 0 19665-1783 24673-5397 5008-3567 7500-9614 7500-18130 0-7795-2764-13429-8338-16902-5599-3448-14504-5196-26693-5196h-23799v45625zm0 13724v52087h29031c11244 0 19701-2185 25382-6544 5693-4322 8527-11149 8527-20409 0-8657-2893-14988-8716-19051-5787-4063-14622-6083-26492-6083h-27732zm135542 65894V621491h16181v124557h61429v14670h-77610zm204175 0h-77621V621491h77621v14362h-61440v44869h57708v14268h-57708v51259h61440v14469zm209821 0h-77621V621491h77621v14362h-61440v44869h57708v14268h-57708v51259h61440v14469zm143692 0l-17315-44268h-55830l-17114 44268h-16394l55028-139806h13629l54768 139806h-16772zm-22370-58878l-16181-43121c-2114-5469-4264-12166-6460-20103-1406 6118-3414 12815-6012 20103l-16394 43121h45047zm162188 21827c0 12248-4453 21803-13323 28653-8905 6874-20964 10311-36212 10311-16488 0-29185-2150-38067-6402v-15602c5693 2410 11929 4323 18661 5717 6721 1405 13394 2090 19984 2090 10796 0 18922-2055 24390-6141 5457-4111 8197-9792 8197-17103 0-4818-981-8775-2906-11870-1949-3047-5197-5917-9708-8515-4559-2599-11445-5563-20717-8835-12968-4653-22228-10145-27755-16488-5551-6342-8351-14622-8351-24874 0-10724 4028-19228 12083-25606 8067-6342 18732-9519 32019-9519 13819 0 26563 2527 38161 7629l-5031 14079c-11480-4807-22665-7216-33508-7216-8598 0-15283 1819-20102 5492-4830 3708-7252 8811-7252 15342 0 4843 886 8776 2670 11870 1783 3083 4783 5917 9011 8480 4217 2563 10689 5398 19370 8528 14598 5197 24638 10771 30142 16736 5480 5976 8244 13712 8244 23244zm53822 37051V621491h16181v139227h-16181zm157345 0h-77621V621491h77621v14362h-61440v44869h57708v14268h-57708v51259h61440v14469zm72366-57898v57898h-16181V621491h38196c17055 0 29669 3259 37830 9814 8162 6532 12248 16358 12248 29516 0 18401-9318 30862-28003 37322l37795 62575h-19110l-33744-57898h-29031zm0-13901h22204c11421 0 19795-2291 25122-6803 5338-4559 8008-11374 8008-20445 0-9200-2705-15826-8138-19889-5421-4075-14138-6118-26161-6118h-21035v53255zm205746-67428h39318c18473 0 31831 2763 40087 8291 8255 5527 12377 14232 12377 26173 0 8244-2303 15082-6885 20444-4618 5363-11315 8835-20150 10430v944c21130 3603 31724 14717 31724 33307 0 12461-4228 22181-12649 29173-8386 6980-20150 10465-35268 10465h-48554V621491zm16181 59609h26645c11457 0 19677-1783 24685-5397 4996-3567 7500-9614 7500-18130 0-7795-2764-13429-8350-16902-5587-3448-14492-5196-26681-5196h-23799v45625zm0 13724v52087h29031c11244 0 19701-2185 25382-6544 5692-4322 8527-11149 8527-20409 0-8657-2905-14988-8728-19051-5776-4063-14622-6083-26492-6083h-27720zm213151 65894h-77609V621491h77609v14362h-61440v44869h57708v14268h-57708v51259h61440v14469zm99023 0h-16169V635853h-44090v-14362h104385v14362h-44126v124865zm133227 0h-16169V635853h-44090v-14362h104385v14362h-44126v124865zm168011 0h-77610V621491h77610v14362h-61429v44869h57708v14268h-57708v51259h61429v14469zm72377-57898v57898h-16181V621491h38196c17055 0 29669 3259 37831 9814 8161 6532 12248 16358 12248 29516 0 18401-9319 30862-28016 37322l37807 62575h-19110l-33744-57898h-29031zm0-13901h22204c11410 0 19795-2291 25122-6803 5339-4559 7996-11374 7996-20445 0-9200-2693-15826-8126-19889-5433-4075-14137-6118-26161-6118h-21035v53255z" fill="#332c2b" fill-rule="nonzero"/><g id="_385919656"><path class="fil3" d="M804099 782237c21838-84979 115310-192707 249281-276411 133960-83727 338820-134042 357729-102885 18910 31217-115333 192719-249281 276435-133971 83704-271781 120495-357729 102861z"/><path class="fil3" d="M804359 782013c-85948 17633-223758-19158-357717-102885-133972-83692-269006-245762-249282-276411 19760-30685 223770 19169 357730 102873 133959 83716 227442 191443 249269 276423z"/><path class="fil4" d="M804749 783477c-75791 33449-213613 28843-359607-18590-145995-47433-313663-161845-301864-196333 11823-34512 213624-28854 359607 18590 145995 47433 260218 124700 301864 196333z"/><path d="M804300 782166c-54767-120825-37004-278182 58051-404347 95089-126164 332123-198411 372693-167266 40535 31157 36992 278183-58074 404347-95054 126164-241451 186601-372670 167266z" fill="url(#id6)"/><path class="fil4" d="M804666 782603c41657-71609 155869-148900 301852-196333 145994-47444 348894-53432 359618-18590 10725 34866-155868 148900-301863 196333-145983 47432-283816 52062-359607 18590z"/><path d="M804879 782249c41810-71515 155892-148640 301650-195990 32351-10500 67500-18969 102732-25429-9307 19547-20043 37830-32291 54070-94936 125975-241026 186412-372091 167349z" fill="#0f0"/><path d="M804394 783099c-131243 19335-277603-41114-372681-167266-95066-126176-99188-373945-58063-404359 41126-30377 277604 41126 372670 167279 95078 126152 112818 283532 58074 404346z" fill="url(#id7)"/><path d="M638616 767166c-77680-25925-151109-77302-206892-151309-39873-52913-63743-127192-74999-197869 65019 19725 138649 50291 198365 87602 133959 83704 227442 191431 249257 276423-44102 9047-101857 3744-165731-14847z" fill="url(#id5)"/><path class="fil9" d="M803922 782095c-85972 17421-223545-19393-357280-102955-56173-35114-112523-83976-157582-131161 67039 4240 146385 17244 213837 39165 145050 47126 258718 123708 301025 194951z"/><path d="M804182 811989c-109334-66165-184924-208109-184924-372540 0-164455 134408-372552 184924-372552 50527 0 184935 208097 184935 372552 0 164431-75590 306375-184935 372540z" fill="url(#id1)"/><path class="fil9" d="M1320449 547011c-45177 47539-101917 96920-158633 132353-133617 83480-271013 120318-357008 103015 41763-71563 155880-148747 301721-196120 67346-21874 146810-34937 213920-39248z"/><path d="M804182 781918c21980-84908 115392-192494 249198-276092 59598-37251 133204-67865 198247-87660-11244 70298-34949 144057-74657 196734-95066 126164-241451 186601-372670 167266l-118-248z" fill="url(#id8)"/><path d="M804879 782249c41810-71515 155892-148640 301650-195990 32351-10500 67500-18981 102732-25429-9307 19559-20043 37806-32291 54070-94936 125975-241026 186412-372091 167349z" fill="url(#id4)"/><path class="fil13" d="M963582 300375c15543 46205 25535 94251 25535 139062 0 144294-58204 271285-146349 344926-12957 59-25807-650-38480-2161-49098-116550-27401-270955 67665-397131 23799-31582 56054-60117 91629-84696z"/><path class="fil13" d="M766682 785237c-88735-73511-147436-200927-147436-345800 0-44610 9933-92444 25347-138459 35751 24614 68196 53231 92113 84979 95090 126164 116751 280592 67677 397107-12426 1488-25016 2197-37701 2173z"/><circle cx="804283" cy="782197" r="25952" fill="#0ff"/><path d="M804867 782261c23669-40500 70523-82783 133180-120460-24638 48886-57165 90720-95279 122562-12768 59-25417-614-37901-2102z" fill="url(#id0)"/><path d="M638616 767166c-77680-25925-151109-77302-206892-151309-12295-16299-23043-34642-32385-54283 35468 6448 70913 14952 103558 25570 145050 47126 258718 123708 301025 194951-44043 8941-101633 3603-165306-14929z" fill="url(#id3)"/><path d="M766682 785237c-38480-31878-71291-73889-96129-123058 62964 37736 110054 80137 133865 120767l-35 118c-12426 1488-25016 2197-37701 2173z" fill="url(#id2)"/><path d="M804182 782379c-46689-34736-78980-109251-78980-195565 0-86315 47433-195554 78980-195554 31559 0 78991 109239 78991 195554 0 86314-32291 160829-78991 195565z" fill="#fff"/><path d="M1465109 748446c-151262 75602-410689 18307-534999 83893-29421 189-50740 390-80161 591-12519-17658-33531-21059-45661-20941h-201c-12130-118-33141 3283-45661 20941-29421-201-50739-402-80160-591-124310-65586-383737-8291-535011-83893 176904 41078 353926 19925 531314 31145 68857-31003 190368-31003 259238 0 177388-11220 354398 9933 531302-31145z" fill="#bfbcbd"/></g></g></svg>