<?xml version="1.0" encoding="UTF-8"?>
<!DOCTYPE svg PUBLIC "-//W3C//DTD SVG 1.1//EN" "http://www.w3.org/Graphics/SVG/1.1/DTD/svg11.dtd">
<!-- Creator: CorelDRAW X7 -->
<svg xmlns="http://www.w3.org/2000/svg" xml:space="preserve" width="750px" height="250px" version="1.1" style="shape-rendering:geometricPrecision; text-rendering:geometricPrecision; image-rendering:optimizeQuality; fill-rule:evenodd; clip-rule:evenodd"
viewBox="0 0 750001 250000"
 xmlns:xlink="http://www.w3.org/1999/xlink">
 <defs>
  <style type="text/css">
   <![CDATA[
    .fil0 {fill:none}
    .fil6 {fill:#9933CC}
    .fil4 {fill:#9933CC}
    .fil3 {fill:#CC33FF}
    .fil5 {fill:white}
    .fil2 {fill:#4D4D4D;fill-rule:nonzero}
    .fil1 {fill:#9933CC;fill-rule:nonzero}
   ]]>
  </style>
      <clipPath id="id0">
       <path d="M34876 15794l118990 0c10840,0 19711,8870 19711,19710l0 118991c0,10840 -8871,19710 -19711,19710l-118990 0c-10840,0 -19711,-8870 -19711,-19710l0 -118991c0,-10840 8871,-19710 19711,-19710z"/>
      </clipPath>
 </defs>
 <g id="Layer_x0020_1">
  <metadata id="CorelCorpID_0Corel-Layer"/>
  <polygon class="fil0" points="0,0 750001,0 750001,250000 0,250000 "/>
  <g id="_722273408">
   <g>
    <g>
     <path class="fil1" d="M679768 73100l0 37076 -10368 0 0 -89162 24460 0c10930,0 19007,2081 24231,6287 5227,4184 7850,10471 7850,18902 0,11782 -5975,19756 -17946,23899l24210 40074 -12239 0 -21609 -37076 -18589 0zm-410764 -8369c0,14717 -3996,25980 -11989,33765 -7995,7786 -19485,11680 -34496,11680l-24688 0 0 -89162 27310 0c13866,0 24649,3832 32331,11512 7680,7704 11532,18423 11532,32205zm-10991 374c0,-11636 -2915,-20400 -8743,-26291 -5829,-5892 -14510,-8847 -26001,-8847l-15072 0 0 71236 12616 0c12366,0 21650,-3039 27874,-9118 6224,-6079 9326,-15072 9326,-26980zm116385 374c0,14262 -3624,25482 -10825,33663 -7224,8160 -17259,12261 -30103,12261 -13135,0 -23274,-4017 -30414,-12053 -7119,-8035 -10699,-19360 -10699,-33995 0,-14530 3580,-25771 10740,-33764 7163,-7995 17322,-11993 30499,-11993 12802,0 22794,4080 29998,12199 7202,8140 10804,19360 10804,33682zm-71049 0c0,12076 2560,21235 7701,27459 5143,6245 12616,9367 22420,9367 9868,0 17341,-3100 22380,-9325 5038,-6224 7556,-15385 7556,-27501 0,-12010 -2498,-21108 -7515,-27289 -5038,-6204 -12468,-9307 -22295,-9307 -9888,0 -17403,3124 -22546,9347 -5141,6245 -7701,15324 -7701,27249zm137221 -36470c-9804,0 -17527,3247 -23211,9783 -5662,6516 -8513,15447 -8513,26794 0,11677 2748,20690 8200,27061 5476,6349 13283,9534 23399,9534 6226,0 13324,-1123 21297,-3352l0 9097c-6183,2311 -13823,3477 -22878,3477 -13137,0 -23275,-3996 -30414,-11969 -7121,-7954 -10701,-19277 -10701,-33955 0,-9200 1728,-17257 5162,-24167 3437,-6911 8390,-12241 14886,-15968 6475,-3747 14113,-5620 22898,-5620 9348,0 17528,1706 24501,5122l-4370 8909c-6765,-3164 -13509,-4746 -20256,-4746zm76166 81167l-10367 0 0 -79961 -28228 0 0 -9201 66845 0 0 9201 -28250 0 0 79961zm124671 -44697c0,14262 -3624,25482 -10825,33663 -7225,8160 -17260,12261 -30103,12261 -13136,0 -23275,-4017 -30413,-12053 -7121,-8035 -10701,-19360 -10701,-33995 0,-14530 3580,-25771 10741,-33764 7161,-7995 17321,-11993 30498,-11993 12803,0 22796,4080 29998,12199 7204,8140 10805,19360 10805,33682zm-71051 0c0,12076 2561,21235 7703,27459 5143,6245 12616,9367 22420,9367 9868,0 17341,-3100 22378,-9325 5040,-6224 7557,-15385 7557,-27501 0,-12010 -2498,-21108 -7514,-27289 -5039,-6204 -12471,-9307 -22296,-9307 -9888,0 -17402,3124 -22545,9347 -5142,6245 -7703,15324 -7703,27249zm109412 -1289l14218 0c7306,0 12678,-1458 16091,-4350 3414,-2915 5122,-7287 5122,-13095 0,-5892 -1728,-10139 -5205,-12741 -3476,-2601 -9056,-3913 -16758,-3913l-13468 0 0 34099z"/>
     <g>
      <path class="fil1" d="M232058 169485l-10332 0 0 -22135c0,-5473 -2038,-8204 -6110,-8204 -2893,0 -4976,984 -6272,2952 -1284,1966 -1932,5148 -1932,9557l0 17830 -10333 0 0 -52752 10333 0 0 10750c0,834 -81,2800 -232,5902l-242 3054 543 0c2302,-3715 5971,-5565 10981,-5565 4455,0 7833,1203 10136,3598 2314,2396 3460,5832 3460,10299l0 24714zm37418 0l-2002 -5148 -265 0c-1747,2186 -3541,3703 -5380,4559 -1840,844 -4236,1272 -7198,1272 -3645,0 -6503,-1041 -8597,-3124 -2094,-2082 -3136,-5045 -3136,-8887 0,-4014 1411,-6988 4224,-8897 2812,-1910 7058,-2962 12727,-3170l6573 -197 0 -1667c0,-3841 -1968,-5763 -5901,-5763 -3020,0 -6584,915 -10669,2755l-3425 -6989c4363,-2279 9200,-3425 14510,-3425 5080,0 8980,1111 11687,3321 2719,2222 4073,5589 4073,10101l0 25259 -7221 0zm-3054 -17564l-3992 139c-3008,92 -5254,636 -6723,1631 -1469,996 -2198,2511 -2198,4536 0,2916 1677,4374 5022,4374 2394,0 4304,-683 5739,-2059 1435,-1389 2152,-3217 2152,-5497l0 -3124zm58605 17564l-10333 0 0 -22135c0,-2731 -486,-4789 -1458,-6155 -972,-1365 -2522,-2049 -4651,-2049 -2893,0 -4976,962 -6271,2894 -1285,1932 -1933,5136 -1933,9615l0 17830 -10333 0 0 -37894 7892 0 1400 4848 566 0c1158,-1840 2743,-3216 4767,-4154 2026,-937 4316,-1411 6897,-1411 4409,0 7753,1191 10032,3575 2290,2383 3425,5832 3425,10322l0 24714zm25350 683c-4455,0 -7948,-1735 -10495,-5195 -2545,-3459 -3807,-8250 -3807,-14371 0,-6214 1286,-11051 3877,-14522 2591,-3471 6156,-5206 10691,-5206 4767,0 8412,1850 10923,5565l336 0c-521,-2835 -775,-5346 -775,-7567l0 -12139 10367 0 0 52752 -7926 0 -2002 -4917 -439 0c-2361,3725 -5937,5600 -10750,5600zm3622 -8238c2650,0 4582,-775 5820,-2314 1226,-1527 1898,-4142 2014,-7823l0 -1122c0,-4072 -625,-6988 -1886,-8747 -1250,-1759 -3287,-2639 -6110,-2639 -2302,0 -4096,973 -5380,2928 -1273,1955 -1910,4802 -1910,8528 0,3725 637,6526 1932,8388 1285,1864 3124,2801 5520,2801zm52102 -31056c4479,0 7972,1746 10507,5241 2533,3483 3795,8273 3795,14348 0,6260 -1296,11108 -3911,14545 -2615,3437 -6167,5160 -10657,5160 -4455,0 -7949,-1619 -10483,-4847l-705 0 -1737 4164 -7891 0 0 -52752 10333 0 0 12278c0,1561 -128,4061 -405,7486l405 0c2419,-3749 6006,-5623 10749,-5623zm-3320 8272c-2558,0 -4421,788 -5589,2361 -1180,1563 -1794,4154 -1840,7775l0 1124c0,4060 613,6976 1816,8735 1216,1771 3124,2650 5751,2650 2118,0 3807,-983 5068,-2928 1250,-1955 1875,-4802 1875,-8527 0,-3737 -625,-6526 -1897,-8389 -1262,-1875 -2998,-2801 -5184,-2801zm37117 11317c0,3761 613,6596 1840,8516 1238,1921 3240,2881 6017,2881 2765,0 4744,-960 5959,-2869 1203,-1910 1804,-4744 1804,-8528 0,-3748 -601,-6561 -1827,-8435 -1215,-1874 -3217,-2812 -6006,-2812 -2753,0 -4744,926 -5958,2788 -1228,1875 -1829,4687 -1829,8459zm26197 0c0,6179 -1620,11004 -4884,14475 -3250,3483 -7775,5230 -13584,5230 -3644,0 -6849,-799 -9627,-2394 -2788,-1597 -4917,-3877 -6410,-6862 -1493,-2985 -2233,-6468 -2233,-10449 0,-6190 1609,-11004 4848,-14441 3228,-3436 7765,-5148 13620,-5148 3645,0 6849,786 9627,2371 2777,1585 4917,3854 6410,6815 1493,2962 2233,6434 2233,10403zm19496 0c0,3761 612,6596 1838,8516 1239,1921 3240,2881 6018,2881 2765,0 4744,-960 5959,-2869 1203,-1910 1805,-4744 1805,-8528 0,-3748 -602,-6561 -1829,-8435 -1214,-1874 -3216,-2812 -6004,-2812 -2755,0 -4745,926 -5959,2788 -1227,1875 -1828,4687 -1828,8459zm26195 0c0,6179 -1619,11004 -4882,14475 -3252,3483 -7776,5230 -13584,5230 -3645,0 -6851,-799 -9628,-2394 -2788,-1597 -4918,-3877 -6409,-6862 -1493,-2985 -2234,-6468 -2234,-10449 0,-6190 1609,-11004 4849,-14441 3228,-3436 7763,-5148 13618,-5148 3645,0 6850,786 9627,2371 2778,1585 4918,3854 6411,6815 1492,2962 2232,6434 2232,10403zm21186 -1585l4512 -5762 10611 -11525 11663 0 -15054 16442 15968 21452 -11929 0 -10923 -15354 -4443 3553 0 11801 -10334 0 0 -52752 10334 0 0 23536 -545 8609 140 0z"/>
      <path class="fil2" d="M567347 164638c0,-1898 509,-3333 1527,-4305 1019,-972 2488,-1458 4433,-1458 1885,0 3331,498 4361,1493 1030,995 1539,2418 1539,4270 0,1781 -521,3192 -1562,4222 -1030,1030 -2476,1539 -4338,1539 -1899,0 -3368,-497 -4398,-1503 -1041,-1006 -1562,-2431 -1562,-4258zm39351 5530c-11802,0 -17692,-6480 -17692,-19427 0,-6445 1597,-11363 4814,-14765 3204,-3402 7799,-5102 13792,-5102 4385,0 8319,856 11791,2580l-3043 7995c-1632,-659 -3147,-1191 -4547,-1608 -1401,-416 -2800,-625 -4201,-625 -5380,0 -8065,3818 -8065,11455 0,7418 2685,11120 8065,11120 1990,0 3830,-266 5519,-798 1701,-533 3391,-1365 5092,-2489l0 8841c-1679,1064 -3368,1805 -5068,2210 -1713,405 -3865,613 -6457,613zm31252 -19705c0,3761 613,6596 1839,8516 1239,1921 3239,2881 6017,2881 2765,0 4744,-960 5959,-2869 1204,-1910 1805,-4744 1805,-8528 0,-3748 -601,-6561 -1829,-8435 -1214,-1874 -3216,-2812 -6004,-2812 -2755,0 -4745,926 -5959,2788 -1227,1875 -1828,4687 -1828,8459zm26195 0c0,6179 -1619,11004 -4882,14475 -3252,3483 -7776,5230 -13584,5230 -3645,0 -6851,-799 -9627,-2394 -2789,-1597 -4917,-3877 -6410,-6862 -1493,-2985 -2234,-6468 -2234,-10449 0,-6190 1609,-11004 4849,-14441 3228,-3436 7763,-5148 13618,-5148 3645,0 6850,786 9627,2371 2778,1585 4918,3854 6411,6815 1493,2962 2232,6434 2232,10403zm45184 19022l-10333 0 0 -22135c0,-2731 -463,-4789 -1377,-6155 -914,-1365 -2349,-2049 -4316,-2049 -2650,0 -4571,972 -5762,2916 -1204,1944 -1805,5138 -1805,9593l0 17830 -10333 0 0 -37894 7892 0 1399 4848 567 0c1018,-1747 2488,-3112 4409,-4084 1921,-984 4131,-1481 6607,-1481 5682,0 9522,1850 11536,5565l914 0c1019,-1770 2511,-3136 4490,-4108 1978,-972 4212,-1457 6687,-1457 4305,0 7545,1098 9755,3309 2198,2198 3298,5727 3298,10588l0 24714 -10368 0 0 -22135c0,-2731 -463,-4789 -1377,-6155 -914,-1365 -2348,-2049 -4316,-2049 -2534,0 -4432,904 -5681,2708 -1250,1817 -1886,4687 -1886,8609l0 19022z"/>
     </g>
    </g>
    <g>
     <path class="fil3" d="M34876 15794l118990 0c10840,0 19711,8870 19711,19710l0 118991c0,10840 -8871,19710 -19711,19710l-118990 0c-10840,0 -19711,-8870 -19711,-19710l0 -118991c0,-10840 8871,-19710 19711,-19710z"/>
     <g style="clip-path:url(#id0)">
      <g>
       <polygon id="1" class="fil4" points="59418,150941 73832,214497 74240,217961 168441,177126 179761,160854 178700,77015 138160,31888 136604,45001 130237,46062 135368,39695 133333,32443 120068,31293 61700,65430 62407,145730 "/>
      </g>
     </g>
     <path class="fil0" d="M34876 15794l118990 0c10840,0 19711,8870 19711,19710l0 118991c0,10840 -8871,19710 -19711,19710l-118990 0c-10840,0 -19711,-8870 -19711,-19710l0 -118991c0,-10840 8871,-19710 19711,-19710z"/>
     <path id="_140x70_Education_2.svg" class="fil5" d="M123970 33275c0,0 2229,-1645 6632,855 6360,3612 2597,5682 2597,5682l-56685 33163 867 88490 3915 2223 56162 -32812c1289,-562 2229,-1646 2924,-2870 416,-734 727,-1851 655,-2863l0 0 -73 -1011 0 0 -1038 -87619 0 0c132,-2512 -991,-5092 -6863,-8426 -4404,-2501 -9812,-2660 -14587,-519l-4809 2770 -55116 32112 866 88491 3914 2222 2996 -1857 -576 -84444 58219 -33587z"/>
     <path class="fil6" d="M109168 138128c-1309,643 -2225,77 -2715,-1684l-9078 -32385 -3497 16869c-405,1948 -1416,3627 -2776,4599 -1359,972 -2780,1036 -3895,172l-1196 -922c-1006,-788 -3407,-771 -5033,26l-6685 3277c0,0 -218,-791 -357,-1656 -140,-869 -244,-1781 -244,-1781l7287 -3573c2756,-1350 6253,-1368 7964,-49l1194 931c25,20 50,40 75,53 10,-36 20,-85 30,-128l4355 -21007c468,-2251 1383,-3731 2721,-4400l19 -8c1329,-652 2255,-85 2750,1677l8989 32073 11455 -60344c427,-2254 1320,-3739 2656,-4415 1348,-715 2259,-112 2754,1673l7183 25920c319,1159 1793,1592 3147,929l9614 -4712c0,0 -119,1235 -217,1912 -93,677 -353,2099 -353,2099l-9039 4431c-3070,1504 -6047,622 -6775,-2002l-6182 -22304 -11449 60297c-424,2254 -1317,3738 -2653,4417l-49 23 0 -8z"/>
    </g>
   </g>
   <path class="fil2" d="M41693 234440l-4310 -11013 -13881 0 -4262 11013 -4075 0 13688 -34774 3389 0 13623 34774 -4172 0zm-5563 -14642l-4026 -10729c-526,-1359 -1059,-3024 -1609,-4997 -347,1520 -849,3185 -1495,4997l-4075 10729 11205 0zm25986 15119c-1689,0 -3234,-315 -4633,-938 -1398,-622 -2571,-1585 -3517,-2878l-282 0c185,1512 282,2951 282,4309l0 10681 -3930 0 0 -37613 3194 0 550 3549 186 0c1011,-1415 2191,-2441 3534,-3072 1342,-630 2878,-954 4616,-954 3445,0 6096,1181 7972,3534 1867,2353 2806,5652 2806,9903 0,4262 -954,7577 -2854,9938 -1908,2360 -4544,3541 -7924,3541zm-566 -23569c-2660,0 -4576,728 -5757,2200 -1188,1471 -1794,3807 -1827,7009l0 881c0,3648 607,6251 1827,7828 1213,1568 3162,2352 5847,2352 2247,0 4001,-905 5271,-2724 1270,-1811 1907,-4318 1907,-7504 0,-3242 -637,-5724 -1907,-7454 -1270,-1730 -3057,-2588 -5361,-2588zm22146 23092l-3930 0 0 -36861 3930 0 0 36861zm12272 0l-3929 0 0 -25962 3929 0 0 25962zm-4260 -32995c0,-898 217,-1562 663,-1982 437,-412 994,-623 1657,-623 631,0 1173,211 1633,639 461,429 688,1083 688,1966 0,881 -227,1543 -688,1980 -460,428 -1002,647 -1633,647 -663,0 -1220,-219 -1657,-647 -446,-437 -663,-1099 -663,-1980zm16485 19703c679,-963 1714,-2224 3105,-3784l8385 -8886 4664 0 -10519 11061 11255 14901 -4763 0 -9167 -12273 -2960 2563 0 9710 -3881 0 0 -36861 3881 0 0 19543c0,872 -65,2215 -186,4026l186 0zm37539 13292l-776 -3694 -194 0c-1293,1625 -2588,2724 -3873,3306 -1286,574 -2894,865 -4818,865 -2572,0 -4593,-662 -6056,-1997 -1456,-1326 -2191,-3210 -2191,-5660 0,-5239 4195,-7988 12580,-8238l4407 -147 0 -1608c0,-2038 -437,-3541 -1318,-4512 -873,-970 -2272,-1455 -4205,-1455 -2158,0 -4609,664 -7341,1989l-1204 -3007c1276,-696 2676,-1246 4203,-1634 1520,-397 3049,-599 4585,-599 3089,0 5385,688 6880,2063 1488,1374 2241,3581 2241,6614l0 17714 -2920 0zm-8877 -2773c2441,0 4366,-671 5765,-2014 1398,-1342 2094,-3217 2094,-5635l0 -2344 -3930 161c-3128,114 -5384,598 -6759,1464 -1383,857 -2078,2199 -2078,4010 0,1423 429,2506 1294,3250 857,736 2062,1108 3614,1108zm36641 -4310c0,2418 -897,4278 -2700,5588 -1803,1317 -4325,1972 -7584,1972 -3437,0 -6120,-550 -8052,-1641l0 -3647c1253,631 2586,1132 4018,1496 1431,364 2805,542 4131,542 2054,0 3631,-324 4738,-978 1107,-656 1658,-1658 1658,-3000 0,-1011 -437,-1876 -1310,-2595 -881,-720 -2588,-1568 -5134,-2548 -2410,-897 -4132,-1682 -5151,-2352 -1018,-671 -1779,-1431 -2271,-2288 -502,-849 -744,-1868 -744,-3057 0,-2118 857,-3783 2579,-5004 1722,-1230 4083,-1844 7082,-1844 2798,0 5523,574 8199,1707l-1399 3201c-2612,-1075 -4973,-1609 -7082,-1609 -1869,0 -3275,292 -4222,873 -946,582 -1422,1391 -1422,2417 0,696 178,1287 533,1779 357,486 931,955 1722,1392 784,444 2304,1083 4545,1924 3080,1116 5158,2247 6241,3387 1084,1133 1625,2563 1625,4285zm10325 7083l-3929 0 0 -25962 3929 0 0 25962zm-4260 -32995c0,-898 218,-1562 663,-1982 437,-412 994,-623 1657,-623 631,0 1173,211 1633,639 461,429 688,1083 688,1966 0,881 -227,1543 -688,1980 -460,428 -1002,647 -1633,647 -663,0 -1220,-219 -1657,-647 -445,-437 -663,-1099 -663,-1980zm29825 18595l0 14400 -4026 0 0 -34629 9500 0c4245,0 7382,808 9412,2442 2029,1625 3047,4066 3047,7341 0,4576 -2319,7673 -6968,9281l9402 15565 -4753 0 -8393 -14400 -7221 0zm0 -3461l5523 0c2837,0 4923,-565 6250,-1689 1326,-1132 1989,-2829 1989,-5085 0,-2289 -671,-3938 -2021,-4949 -1350,-1010 -3518,-1520 -6509,-1520l-5232 0 0 13243zm36336 18338c-3841,0 -6865,-1173 -9080,-3509 -2223,-2336 -3331,-5578 -3331,-9734 0,-4189 1026,-7512 3089,-9977 2062,-2458 4827,-3696 8303,-3696 3250,0 5830,1076 7722,3210 1899,2143 2845,4964 2845,8474l0 2482 -17884 0c81,3047 849,5368 2304,6945 1464,1577 3526,2369 6177,2369 2790,0 5555,-582 8288,-1755l0 3509c-1391,599 -2701,1027 -3946,1285 -1237,260 -2733,397 -4487,397zm-1068 -23617c-2086,0 -3743,679 -4980,2037 -1245,1359 -1973,3234 -2191,5637l13567 0c0,-2483 -550,-4384 -1657,-5702 -1108,-1317 -2685,-1972 -4739,-1972zm29019 235l-6606 0 0 22905 -3938 0 0 -22905 -4640 0 0 -1779 4640 -1423 0 -1440c0,-6379 2790,-9573 8360,-9573 1375,0 2992,276 4835,833l-1018 3145c-1513,-484 -2814,-736 -3881,-736 -1488,0 -2588,502 -3299,1489 -712,986 -1059,2571 -1059,4745l0 1682 6606 0 0 3057zm15702 23382c-3841,0 -6865,-1173 -9081,-3509 -2223,-2336 -3331,-5578 -3331,-9734 0,-4189 1027,-7512 3089,-9977 2062,-2458 4827,-3696 8303,-3696 3251,0 5830,1076 7722,3210 1900,2143 2846,4964 2846,8474l0 2482 -17885 0c82,3047 850,5368 2305,6945 1463,1577 3525,2369 6177,2369 2790,0 5555,-582 8288,-1755l0 3509c-1392,599 -2702,1027 -3946,1285 -1237,260 -2734,397 -4487,397zm-1068 -23617c-2086,0 -3743,679 -4981,2037 -1245,1359 -1972,3234 -2191,5637l13568 0c0,-2483 -551,-4384 -1658,-5702 -1107,-1317 -2684,-1972 -4738,-1972zm29155 -3299c1157,0 2191,97 3106,292l-543 3646c-1074,-242 -2020,-356 -2846,-356 -2093,0 -3897,850 -5385,2555 -1495,1706 -2239,3833 -2239,6371l0 13931 -3930 0 0 -25962 3243 0 453 4811 185 0c963,-1690 2126,-2992 3486,-3913 1358,-914 2845,-1375 4470,-1375zm17958 26916c-3841,0 -6865,-1173 -9080,-3509 -2223,-2336 -3331,-5578 -3331,-9734 0,-4189 1026,-7512 3088,-9977 2063,-2458 4828,-3696 8304,-3696 3250,0 5830,1076 7722,3210 1899,2143 2845,4964 2845,8474l0 2482 -17884 0c81,3047 849,5368 2304,6945 1463,1577 3526,2369 6177,2369 2790,0 5555,-582 8288,-1755l0 3509c-1391,599 -2701,1027 -3946,1285 -1237,260 -2733,397 -4487,397zm-1068 -23617c-2086,0 -3743,679 -4980,2037 -1245,1359 -1973,3234 -2191,5637l13567 0c0,-2483 -550,-4384 -1657,-5702 -1108,-1317 -2685,-1972 -4739,-1972zm35083 23140l0 -16793c0,-2119 -486,-3694 -1448,-4738 -962,-1043 -2465,-1561 -4519,-1561 -2717,0 -4706,728 -5976,2200 -1261,1471 -1892,3889 -1892,7268l0 13624 -3929 0 0 -25962 3194 0 638 3549 194 0c801,-1276 1932,-2263 3389,-2966 1447,-704 3072,-1060 4851,-1060 3128,0 5481,761 7058,2264 1585,1512 2369,3922 2369,7237l0 16938 -3929 0zm28758 -7083c0,2418 -897,4278 -2700,5588 -1803,1317 -4325,1972 -7584,1972 -3437,0 -6120,-550 -8052,-1641l0 -3647c1253,631 2586,1132 4018,1496 1431,364 2805,542 4131,542 2054,0 3631,-324 4738,-978 1108,-656 1658,-1658 1658,-3000 0,-1011 -437,-1876 -1310,-2595 -881,-720 -2588,-1568 -5134,-2548 -2410,-897 -4132,-1682 -5151,-2352 -1018,-671 -1779,-1431 -2271,-2288 -502,-849 -744,-1868 -744,-3057 0,-2118 857,-3783 2579,-5004 1722,-1230 4083,-1844 7082,-1844 2798,0 5523,574 8199,1707l-1399 3201c-2612,-1075 -4973,-1609 -7082,-1609 -1869,0 -3275,292 -4221,873 -946,582 -1422,1391 -1422,2417 0,696 177,1287 532,1779 357,486 931,955 1722,1392 785,444 2305,1083 4545,1924 3081,1116 5158,2247 6241,3387 1084,1133 1625,2563 1625,4285zm10326 7083l-3930 0 0 -25962 3930 0 0 25962zm-4261 -32995c0,-898 218,-1562 663,-1982 437,-412 994,-623 1657,-623 631,0 1173,211 1634,639 460,429 687,1083 687,1966 0,881 -227,1543 -687,1980 -461,428 -1003,647 -1634,647 -663,0 -1220,-219 -1657,-647 -445,-437 -663,-1099 -663,-1980zm36455 32995l-4026 0 0 -31056 -10963 0 0 -3573 25962 0 0 3573 -10973 0 0 31056zm23165 477c-3841,0 -6864,-1173 -9080,-3509 -2223,-2336 -3331,-5578 -3331,-9734 0,-4189 1027,-7512 3089,-9977 2062,-2458 4827,-3696 8303,-3696 3250,0 5830,1076 7722,3210 1899,2143 2845,4964 2845,8474l0 2482 -17884 0c81,3047 849,5368 2304,6945 1464,1577 3526,2369 6178,2369 2789,0 5554,-582 8287,-1755l0 3509c-1391,599 -2701,1027 -3946,1285 -1236,260 -2733,397 -4487,397zm-1067 -23617c-2086,0 -3743,679 -4981,2037 -1245,1359 -1973,3234 -2191,5637l13567 0c0,-2483 -550,-4384 -1657,-5702 -1108,-1317 -2685,-1972 -4738,-1972zm35082 23140l0 -16793c0,-2119 -486,-3694 -1448,-4738 -962,-1043 -2465,-1561 -4519,-1561 -2717,0 -4706,728 -5975,2200 -1262,1471 -1892,3889 -1892,7268l0 13624 -3930 0 0 -25962 3194 0 639 3549 193 0c801,-1276 1933,-2263 3389,-2966 1447,-704 3072,-1060 4851,-1060 3129,0 5481,761 7058,2264 1585,1512 2369,3922 2369,7237l0 16938 -3929 0zm27974 0l-776 -3694 -193 0c-1294,1625 -2588,2724 -3873,3306 -1286,574 -2895,865 -4819,865 -2571,0 -4592,-662 -6056,-1997 -1456,-1326 -2191,-3210 -2191,-5660 0,-5239 4196,-7988 12580,-8238l4407 -147 0 -1608c0,-2038 -437,-3541 -1318,-4512 -873,-970 -2271,-1455 -4205,-1455 -2158,0 -4608,664 -7340,1989l-1205 -3007c1277,-696 2676,-1246 4204,-1634 1520,-397 3048,-599 4585,-599 3088,0 5384,688 6880,2063 1488,1374 2240,3581 2240,6614l0 17714 -2920 0zm-8877 -2773c2442,0 4367,-671 5765,-2014 1399,-1342 2094,-3217 2094,-5635l0 -2344 -3929 161c-3129,114 -5385,598 -6760,1464 -1383,857 -2077,2199 -2077,4010 0,1423 428,2506 1293,3250 858,736 2062,1108 3614,1108zm41145 -23189l0 2491 -4810 566c445,549 832,1277 1181,2166 347,889 525,1900 525,3025 0,2538 -874,4567 -2604,6079 -1737,1520 -4123,2281 -7155,2281 -776,0 -1504,-65 -2183,-195 -1674,889 -2506,1997 -2506,3340 0,711 290,1237 873,1577 582,339 1585,509 3008,509l4600 0c2805,0 4965,590 6476,1779 1504,1180 2265,2902 2265,5166 0,2870 -1157,5061 -3461,6573 -2304,1504 -5668,2256 -10090,2256 -3397,0 -6017,-631 -7851,-1891 -1844,-1262 -2766,-3049 -2766,-5353 0,-1577 510,-2944 1520,-4100 1011,-1156 2434,-1932 4261,-2344 -662,-299 -1221,-768 -1665,-1399 -454,-630 -679,-1366 -679,-2199 0,-954 250,-1779 759,-2491 502,-711 1302,-1398 2393,-2061 -1342,-550 -2441,-1488 -3282,-2815 -849,-1325 -1270,-2845 -1270,-4551 0,-2838 858,-5028 2563,-6573 1707,-1537 4116,-2313 7245,-2313 1358,0 2580,162 3671,477l8982 0zm-20706 30320c0,1407 591,2474 1779,3202 1180,720 2878,1083 5094,1083 3299,0 5740,-493 7325,-1479 1592,-987 2385,-2321 2385,-4010 0,-1407 -437,-2386 -1302,-2927 -872,-551 -2506,-817 -4907,-817l-4714 0c-1779,0 -3170,428 -4164,1278 -995,849 -1496,2077 -1496,3670zm2135 -22008c0,1820 509,3193 1536,4123 1027,931 2458,1400 4285,1400 3841,0 5757,-1861 5757,-5587 0,-3906 -1941,-5855 -5822,-5855 -1851,0 -3274,494 -4268,1497 -995,994 -1488,2466 -1488,4422zm39859 17650l-776 -3694 -193 0c-1294,1625 -2588,2724 -3873,3306 -1286,574 -2895,865 -4819,865 -2571,0 -4592,-662 -6056,-1997 -1456,-1326 -2190,-3210 -2190,-5660 0,-5239 4195,-7988 12580,-8238l4406 -147 0 -1608c0,-2038 -437,-3541 -1318,-4512 -873,-970 -2271,-1455 -4205,-1455 -2158,0 -4608,664 -7340,1989l-1205 -3007c1277,-696 2676,-1246 4204,-1634 1520,-397 3048,-599 4585,-599 3088,0 5384,688 6880,2063 1488,1374 2240,3581 2240,6614l0 17714 -2920 0zm-8877 -2773c2442,0 4367,-671 5765,-2014 1399,-1342 2094,-3217 2094,-5635l0 -2344 -3929 161c-3129,114 -5385,598 -6760,1464 -1383,857 -2077,2199 -2077,4010 0,1423 429,2506 1293,3250 858,736 2062,1108 3614,1108zm48414 2773l-11747 -30699 -187 0c218,2433 332,5320 332,8667l0 22032 -3719 0 0 -34629 6063 0 10965 28565 193 0 11061 -28565 6016 0 0 34629 -4027 0 0 -22316c0,-2554 112,-5336 331,-8335l-185 0 -11846 30651 -3250 0zm38850 477c-3841,0 -6865,-1173 -9080,-3509 -2223,-2336 -3331,-5578 -3331,-9734 0,-4189 1026,-7512 3088,-9977 2063,-2458 4828,-3696 8304,-3696 3250,0 5830,1076 7722,3210 1899,2143 2845,4964 2845,8474l0 2482 -17884 0c81,3047 849,5368 2304,6945 1463,1577 3526,2369 6177,2369 2790,0 5555,-582 8288,-1755l0 3509c-1391,599 -2701,1027 -3946,1285 -1237,260 -2733,397 -4487,397zm-1068 -23617c-2086,0 -3743,679 -4980,2037 -1245,1359 -1973,3234 -2191,5637l13567 0c0,-2483 -550,-4384 -1657,-5702 -1108,-1317 -2685,-1972 -4739,-1972zm34986 19656l-210 0c-1821,2635 -4537,3961 -8151,3961 -3396,0 -6039,-1164 -7923,-3485 -1884,-2320 -2830,-5619 -2830,-9904 0,-4278 946,-7600 2846,-9969 1891,-2369 4528,-3558 7907,-3558 3525,0 6225,1286 8102,3841l307 0 -162 -1867 -96 -1829 0 -10567 3929 0 0 36861 -3194 0 -525 -3484zm-7859 662c2684,0 4624,-727 5837,-2191 1204,-1455 1812,-3816 1812,-7066l0 -833c0,-3679 -616,-6307 -1836,-7875 -1229,-1569 -3177,-2353 -5862,-2353 -2304,0 -4075,898 -5296,2685 -1221,1795 -1835,4325 -1835,7592 0,3314 606,5821 1819,7510 1221,1690 3008,2531 5361,2531zm23851 2822l-3930 0 0 -25962 3930 0 0 25962zm-4260 -32995c0,-898 217,-1562 662,-1982 437,-412 995,-623 1657,-623 631,0 1173,211 1634,639 460,429 687,1083 687,1966 0,881 -227,1543 -687,1980 -461,428 -1003,647 -1634,647 -662,0 -1220,-219 -1657,-647 -445,-437 -662,-1099 -662,-1980zm29348 25912c0,2418 -898,4278 -2700,5588 -1804,1317 -4325,1972 -7584,1972 -3437,0 -6121,-550 -8053,-1641l0 -3647c1253,631 2587,1132 4018,1496 1432,364 2805,542 4132,542 2054,0 3631,-324 4737,-978 1108,-656 1658,-1658 1658,-3000 0,-1011 -437,-1876 -1309,-2595 -881,-720 -2588,-1568 -5135,-2548 -2409,-897 -4131,-1682 -5150,-2352 -1019,-671 -1779,-1431 -2272,-2288 -502,-849 -744,-1868 -744,-3057 0,-2118 858,-3783 2580,-5004 1722,-1230 4083,-1844 7082,-1844 2798,0 5522,574 8199,1707l-1400 3201c-2611,-1075 -4972,-1609 -7082,-1609 -1868,0 -3275,292 -4221,873 -946,582 -1422,1391 -1422,2417 0,696 177,1287 533,1779 356,486 930,955 1722,1392 784,444 2304,1083 4545,1924 3080,1116 5158,2247 6241,3387 1084,1133 1625,2563 1625,4285z"/>
  </g>
 </g>
</svg>
